{"title":"Garbage.2013 WEBRip XViD juggs","uid":8493200,"size":742867931,"categoryP":"video","categoryS":"movies","magnet":"?xt=urn:btih:dffa8c3c204702874275ef7730aaff394918b93e&amp;dn=Garbage.2013+WEBRip+XViD+juggs&amp;tr=udp%3A%2F%2Ftracker.openbittorrent.com%3A80&amp;tr=udp%3A%2F%2Fopen.demonii.com%3A1337&amp;tr=udp%3A%2F%2Ftracker.coppersurfer.tk%3A6969&amp;tr=udp%3A%2F%2Fexodus.desync.com%3A6969","seeders":1,"leechers":1,"uploader":"juggs99","files":3,"time":1369060409,"description":"Source : WEBiOS(Thanks)\n &lt;a href=&quot;\nhttp://www.imdb.com/title/tt1492849/&quot; rel=&quot;nofollow&quot; target=&quot;_NEW&quot;&gt;\nhttp://www.imdb.com/title/tt1492849/&lt;/a&gt;\n\nFormat                                   : AVI\nFormat/Info                              : Audio Video Interleave\nFile size                                : 696 MiB\nDuration                                 : 1h 22mn\nOverall bit rate                         : 1 173 Kbps\nWriting library                          : VirtualDub build 32842/release\n\nVideo\nID                                       : 0\nFormat                                   : MPEG-4 Visual\nFormat profile                           : Advanced Simple@L5\nFormat settings, BVOP                    : 2\nFormat settings, QPel                    : No\nFormat settings, GMC                     : No warppoints\nFormat settings, Matrix                  : Default (H.263)\nMuxing mode                              : Packed bitstream\nCodec ID                                 : XVID\nCodec ID/Hint                            : XviD\nDuration                                 : 1h 22mn\nBit rate                                 : 1 035 Kbps\nWidth                                    : 640 pixels\nHeight                                   : 352 pixels\nDisplay aspect ratio                     : 16:9\nFrame rate                               : 23.976 fps\nColor space                              : YUV\nChroma subsampling                       : 4:2:0\nBit depth                                : 8 bits\nScan type                                : Progressive\nCompression mode                         : Lossy\nBits/(Pixel*Frame)                       : 0.192\nStream size                              : 614 MiB (88%)\nWriting library                          : XviD 1.2.0.dev47 (UTC 2006-11-01)\n\nAudio\nID                                       : 1\nFormat                                   : MPEG Audio\nFormat version                           : Version 1\nFormat profile                           : Layer 3\nCodec ID                                 : 55\nCodec ID/Hint                            : MP3\nDuration                                 : 1h 22mn\nBit rate mode                            : Constant\nBit rate                                 : 128 Kbps\nChannel(s)                               : 2 channels\nSampling rate                            : 44.1 KHz\nCompression mode                         : Lossy\nStream size                              : 75.9 MiB (11%)\nAlignment                                : Split accross interleaves\nInterleave, duration                     : 42 ms (1.00 video frame)\nInterleave, preload duration             : 500 ms\nWriting library                          : LAME3.99r\nEncoding settings                        : -m s -V 4 -q 3 -lowpass 17 -b 128\n &lt;a href=&quot;\nhttp://www.shotpix.com/images/21850130456200565703.png&quot; rel=&quot;nofollow&quot; target=&quot;_NEW&quot;&gt;\nhttp://www.shotpix.com/images/21850130456200565703.png&lt;/a&gt; &lt;a href=&quot;\nhttp://www.shotpix.com/images/96747198712305445645.png&quot; rel=&quot;nofollow&quot; target=&quot;_NEW&quot;&gt;\nhttp://www.shotpix.com/images/96747198712305445645.png&lt;/a&gt; &lt;a href=&quot;\nhttp://www.shotpix.com/images/42232699695950500213.png&quot; rel=&quot;nofollow&quot; target=&quot;_NEW&quot;&gt;\nhttp://www.shotpix.com/images/42232699695950500213.png&lt;/a&gt;","torrent":{"xt":"urn:btih:dffa8c3c204702874275ef7730aaff394918b93e","amp;dn":"Garbage.2013+WEBRip+XViD+juggs","amp;tr":["udp%3A%2F%2Ftracker.openbittorrent.com%3A80","udp%3A%2F%2Fopen.demonii.com%3A1337","udp%3A%2F%2Ftracker.coppersurfer.tk%3A6969","udp%3A%2F%2Fexodus.desync.com%3A6969"],"infoHash":"dffa8c3c204702874275ef7730aaff394918b93e","infoHashBuffer":{"type":"Buffer","data":[223,250,140,60,32,71,2,135,66,117,239,119,48,170,255,57,73,24,185,62]},"announce":[],"urlList":[]}}